<svg width="36" height="36" viewBox="0 0 36 36" fill="none" xmlns="http://www.w3.org/2000/svg">
<path d="M7.415 4C8.415 3 7.665 0 5.977 0C4.289 0 4.415 2 5.415 2C6.415 2 6.415 4 6.415 5C6.415 6 7.415 4 7.415 4ZM3.232 5.72C4.232 4.72 3.482 1.72 1.794 1.72C0.106 1.72 0.232 3.72 1.232 3.72C2.232 3.72 2.232 5.72 2.232 6.72C2.232 7.72 3.232 5.72 3.232 5.72Z" fill="#AA8DD8"/>
<path d="M29.607 32.856C29.796 33.664 30.834 35.136 31.639 34.947C32.445 34.757 32.716 32.976 32.527 32.17C32.338 31.362 31.529 30.863 30.723 31.053C29.918 31.243 29.417 32.05 29.607 32.856ZM24.173 33.505C24.176 34.335 24.854 36.003 25.682 36C26.51 35.996 27.176 34.323 27.173 33.494C27.17 32.665 26.496 31.997 25.668 31.999C24.84 32.003 24.17 32.676 24.173 33.505ZM18.902 31.059C18.576 31.823 18.537 33.622 19.298 33.949C20.061 34.273 21.335 33.002 21.661 32.239C21.986 31.477 21.633 30.596 20.872 30.269C20.11 29.944 19.229 30.296 18.902 31.059ZM13.871 20.019C13.059 20.191 11.563 21.192 11.732 22.002C11.905 22.812 13.677 23.126 14.489 22.955C15.3 22.784 15.818 21.988 15.649 21.178C15.477 20.368 14.684 19.848 13.871 20.019ZM11.834 15.019C11.022 15.191 9.526 16.192 9.695 17.002C9.868 17.812 11.64 18.126 12.452 17.955C13.263 17.784 13.781 16.988 13.612 16.178C13.44 15.368 12.646 14.848 11.834 15.019Z" fill="#744EAA"/>
<path d="M27.244 34C30.075 34 32.17 33.123 32.51 32.973C34.781 31.963 35.803 29.304 34.794 27.034C33.795 24.784 31.178 23.759 28.922 24.72C28.789 24.77 27.129 25.369 25.579 24.648C23.728 23.787 22.584 21.339 21.951 19.439C21.807 19.009 21.566 18.165 21.265 17.123C19.399 10.652 18.433 8.838 17.282 7.303C13.571 2.352 7.69 2.007 4.799 2.587C2.362 3.074 0.781 5.445 1.269 7.882C1.757 10.32 4.129 11.902 6.565 11.412C6.727 11.386 8.769 11.106 9.989 12.581C10.632 13.868 12.069 17.709 12.619 19.615C12.965 20.814 13.248 21.786 13.413 22.282C15.186 27.599 18.079 31.175 22.016 32.911C23.868 33.729 25.67 34 27.244 34Z" fill="#9266CC"/>
<path d="M6.682 6C7.23428 6 7.682 5.55228 7.682 5C7.682 4.44772 7.23428 4 6.682 4C6.12972 4 5.682 4.44772 5.682 5C5.682 5.55228 6.12972 6 6.682 6Z" fill="white"/>
<path d="M30.923 32.964C30.834 32.964 30.743 32.952 30.654 32.928C30.122 32.78 29.81 32.229 29.958 31.697C30.715 28.975 29.188 27.155 29.173 27.137C28.814 26.718 28.861 26.086 29.28 25.727C29.698 25.368 30.331 25.415 30.69 25.834C30.782 25.941 32.924 28.494 31.885 32.231C31.763 32.674 31.36 32.964 30.923 32.964ZM23.724 32.401C23.479 32.401 23.234 32.312 23.04 32.131C22.637 31.753 22.616 31.12 22.993 30.717C24.478 29.13 24.446 26.524 24.445 26.497C24.429 25.945 24.864 25.485 25.417 25.469C25.959 25.464 26.43 25.888 26.445 26.441C26.449 26.58 26.518 29.878 24.454 32.085C24.257 32.295 23.99 32.401 23.724 32.401ZM15.182 23.705C14.702 23.705 14.278 23.358 14.197 22.868C14.107 22.324 14.475 21.808 15.02 21.719C18.094 21.209 19.794 19.342 19.811 19.323C20.176 18.913 20.809 18.874 21.22 19.239C21.632 19.604 21.673 20.232 21.311 20.645C21.224 20.744 19.155 23.06 15.347 23.691C15.291 23.701 15.236 23.705 15.182 23.705ZM18.103 28.562C17.678 28.562 17.284 28.29 17.149 27.864C16.983 27.338 17.275 26.775 17.801 26.609C20.494 25.756 21.681 23.779 21.693 23.759C21.973 23.282 22.585 23.122 23.061 23.402C23.538 23.681 23.697 24.295 23.418 24.77C23.355 24.878 21.823 27.433 18.405 28.514C18.304 28.547 18.202 28.562 18.103 28.562ZM13.484 17.892C12.988 17.892 12.557 17.523 12.493 17.017C12.424 16.469 12.812 15.969 13.36 15.899C16.049 15.559 18.017 13.928 18.036 13.911C18.458 13.557 19.089 13.608 19.444 14.03C19.8 14.451 19.749 15.08 19.329 15.437C19.232 15.52 16.909 17.466 13.611 17.883C13.568 17.889 13.526 17.892 13.484 17.892ZM11.663 13.125C11.238 13.125 10.844 12.852 10.709 12.424C10.544 11.897 10.836 11.336 11.363 11.17C14.493 10.187 15.616 8.478 15.662 8.406C15.957 7.944 16.573 7.801 17.037 8.094C17.502 8.386 17.648 8.993 17.361 9.46C17.301 9.557 15.855 11.856 11.962 13.079C11.863 13.11 11.762 13.125 11.663 13.125Z" fill="#744EAA"/>
</svg>
