<svg width="23" height="35" viewBox="0 0 23 35" fill="none" xmlns="http://www.w3.org/2000/svg">
<path d="M22.1829 10.92C22.1829 17.359 17.1829 18.359 17.1829 24.36C17.1829 27.458 14.0599 27.719 11.6829 27.719C9.62989 27.719 5.09689 26.94 5.09689 24.358C5.09689 18.36 0.182888 17.36 0.182888 10.92C0.182888 4.889 5.46789 0 11.2659 0C17.0659 0 22.1829 4.889 22.1829 10.92Z" fill="#FFD983"/>
<path d="M15.3499 32.36C15.3499 33.188 13.1159 34.86 11.1829 34.86C9.24989 34.86 7.01589 33.188 7.01589 32.36C7.01589 31.532 9.24889 31.86 11.1829 31.86C13.1159 31.86 15.3499 31.532 15.3499 32.36Z" fill="#CCD6DD"/>
<path d="M15.8899 10.153C15.4989 9.762 14.8669 9.762 14.4759 10.153L11.1829 13.446L7.88989 10.153C7.49889 9.762 6.86689 9.762 6.47589 10.153C6.08489 10.544 6.08489 11.176 6.47589 11.567L10.1829 15.274V25.86C10.1829 26.413 10.6309 26.86 11.1829 26.86C11.7349 26.86 12.1829 26.413 12.1829 25.86V15.274L15.8899 11.567C16.2809 11.176 16.2809 10.544 15.8899 10.153Z" fill="#FFCC4D"/>
<path d="M17.1829 30.86C17.1829 31.964 16.2869 32.86 15.1829 32.86H7.18289C6.07889 32.86 5.18289 31.964 5.18289 30.86V24.86H17.1829V30.86Z" fill="#99AAB5"/>
<path d="M5.18189 31.86C4.70189 31.86 4.27789 31.513 4.19689 31.024C4.10589 30.48 4.47389 29.964 5.01889 29.874L17.0189 27.874C17.5629 27.776 18.0789 28.151 18.1689 28.696C18.2599 29.24 17.8919 29.756 17.3469 29.846L5.34689 31.846C5.29189 31.856 5.23589 31.86 5.18189 31.86ZM5.18189 27.86C4.70189 27.86 4.27789 27.513 4.19689 27.024C4.10589 26.48 4.47389 25.964 5.01889 25.874L17.0189 23.874C17.5629 23.777 18.0789 24.151 18.1689 24.696C18.2599 25.24 17.8919 25.756 17.3469 25.846L5.34689 27.846C5.29189 27.856 5.23589 27.86 5.18189 27.86Z" fill="#CCD6DD"/>
</svg>
